<?xml version="1.0" standalone="no"?>
<!DOCTYPE svg PUBLIC "-//W3C//DTD SVG 20010904//EN"
 "http://www.w3.org/TR/2001/REC-SVG-20010904/DTD/svg10.dtd">
<svg version="1.0" xmlns="http://www.w3.org/2000/svg"
 width="512.000000pt" height="512.000000pt" viewBox="0 0 512.000000 512.000000"
 preserveAspectRatio="xMidYMid meet">
<metadata>
Created by potrace 1.14, written by Peter Selinger 2001-2017
</metadata>
<g transform="translate(0.000000,512.000000) scale(0.100000,-0.100000)"
fill="#000000" stroke="none">
<path d="M3760 4008 c-248 -39 -420 -243 -422 -501 -1 -101 8 -156 37 -232 85
-226 279 -395 505 -441 65 -13 65 -10 33 -149 -117 -508 -315 -889 -534 -1028
-88 -56 -143 -72 -244 -72 -77 0 -98 4 -145 27 -96 46 -187 155 -258 308 -46
101 -46 99 -4 191 60 129 161 391 177 459 2 8 13 46 25 84 12 38 23 76 26 85
2 9 12 50 23 91 11 41 22 89 25 105 2 17 12 68 20 115 30 174 37 360 16 442
-57 214 -244 324 -491 287 -97 -14 -113 -19 -177 -51 -99 -49 -168 -137 -212
-266 -28 -86 -33 -133 -34 -307 -1 -374 42 -745 123 -1061 l28 -110 -59 -69
c-190 -224 -373 -328 -578 -328 -104 0 -142 11 -198 58 -60 50 -76 96 -76 215
0 95 8 202 18 255 2 11 7 45 12 75 4 30 8 57 9 60 0 3 4 26 8 51 12 70 16 94
43 229 14 69 27 139 30 155 3 17 12 55 19 85 8 30 16 66 18 80 3 14 10 43 15
65 6 22 13 51 16 65 3 14 14 68 26 120 65 285 57 480 -25 648 -84 170 -223
245 -444 241 -165 -3 -303 -46 -424 -133 -117 -83 -180 -177 -195 -291 -14
-114 9 -167 72 -159 55 7 75 17 171 89 50 37 107 75 128 85 70 32 141 9 179
-56 49 -84 56 -286 17 -484 -17 -87 -69 -308 -105 -448 -121 -465 -175 -703
-178 -790 -7 -191 60 -395 163 -498 146 -147 335 -211 606 -207 277 5 518 121
753 362 35 35 75 80 89 98 l26 34 39 -72 c102 -188 211 -306 342 -369 128 -62
227 -69 456 -33 185 28 432 167 563 315 72 81 167 208 167 222 0 3 16 31 35
63 42 72 121 254 168 393 54 157 108 406 133 620 4 30 8 62 10 70 1 8 3 25 3
37 1 16 13 27 49 43 154 68 264 215 256 341 -6 89 -68 98 -190 26 -44 -26 -83
-47 -85 -47 -2 0 -4 64 -4 143 0 172 -9 239 -41 337 -73 218 -210 327 -419
334 -44 2 -105 -1 -135 -6z m189 -344 c23 -16 56 -83 66 -132 6 -29 6 -200 1
-242 -2 -14 -4 -35 -5 -48 -1 -19 -4 -21 -19 -13 -58 31 -124 122 -150 206
-14 46 -15 151 -2 191 17 51 66 68 109 38z m-1302 -219 c69 -48 77 -266 22
-550 -17 -87 -58 -240 -76 -285 -3 -8 -7 -19 -9 -25 -1 -5 -7 -21 -12 -35 -8
-19 -11 -21 -13 -7 -1 9 -2 20 -3 25 -1 4 -6 32 -10 62 -5 30 -10 63 -11 72
-2 9 -7 57 -10 105 -4 48 -9 97 -11 108 -6 33 -5 357 1 390 27 138 70 184 132
140z"/>
</g>
</svg>
